<svg width="83" height="82" viewBox="0 0 83 82" fill="none" xmlns="http://www.w3.org/2000/svg">
<g clip-path="url(#clip0)">
<path style="fill:#fff"  d="M20.9201 77.2665H28.0064C32.1144 77.2665 32.1205 70.8462 28.0064 70.8462H20.9201C16.8122 70.8462 16.8062 77.2665 20.9201 77.2665ZM20.9201 73.2485H28.0064C29.0474 73.2485 29.0474 74.8642 28.0064 74.8642H20.9201C19.8793 74.8642 19.8793 73.2485 20.9201 73.2485Z" fill="#0F9547"/>
<path style="fill:#fff"  d="M29.714 41.2867L21.9133 49.1119L19.2117 46.4018C18.1166 45.3041 16.4235 47.0022 17.5182 48.1005L21.0666 51.66C21.6312 52.1289 22.1957 52.1289 22.7601 51.66L31.4076 42.9855C32.5022 41.8871 30.8091 40.189 29.714 41.2867Z" fill="#0F9547"/>
<path style="fill:#fff"  d="M81.7201 53.1392C81.2367 52.2135 80.8864 51.1994 80.6485 50.1816C79.4808 45.2818 77.7067 40.5347 75.3762 36.0722L71.4794 28.6111C69.2736 24.3872 62.7636 25.0894 61.5345 29.7223C58.6193 28.6702 55.3285 30.3994 54.5313 33.4027C52.1213 32.5327 49.3383 33.5574 48.0606 35.7808V9.40486V4.69306C48.0604 2.10541 45.9617 0 43.3818 0H15.4865C13.9383 0 13.9383 2.40234 15.4865 2.40234H43.3818C44.641 2.40234 45.6656 3.42991 45.6656 4.69306V8.20368H3.26107V4.69306C3.26107 3.42991 4.28543 2.40234 5.54465 2.40234H8.78106C10.3293 2.40234 10.3293 0 8.78106 0H5.54465C2.96507 0 0.866211 2.10541 0.866211 4.69306V9.40486V67.2989V77.3069C0.866211 79.8946 2.96507 82 5.54465 82H43.3818C45.9616 82 48.0604 79.8946 48.0604 77.3069V67.2989V62.4877L52.3394 64.6107C53.3968 65.1354 54.2658 66.0089 54.7866 67.0707C56.6875 70.9457 61.5596 72.5522 65.3866 70.5408L72.5209 66.7916C73.8923 66.0709 72.7809 63.943 71.4095 64.6636L64.2752 68.4128C61.6252 69.8062 58.2564 68.7027 56.9354 66.01C56.1833 64.4768 54.9282 63.2151 53.4011 62.4573L35.2428 53.4475C31.8324 51.7859 34.2988 46.4189 37.7624 48.0393L44.3556 51.521C45.3727 52.0581 46.5074 50.9223 45.974 49.9008L34.5204 27.9703C32.6396 24.4235 37.6763 21.1496 39.5975 24.8287L47.6934 40.3299L49.808 44.379C50.506 45.7161 52.6459 44.6363 51.9294 43.2641L49.8706 39.3222C49.0369 36.5353 52.4668 34.2883 54.6744 36.2312L56.9653 40.6175C57.6633 41.9547 59.8032 40.8749 59.0867 39.5027L56.7573 35.0427C56.5393 32.4803 59.6673 30.8314 61.6447 32.5215L63.9505 36.9367C64.6485 38.2738 66.7884 37.194 66.0718 35.8218L63.7656 31.406C63.4518 28.2613 67.864 26.8652 69.3577 29.7258L73.2545 37.1868C75.4932 41.4734 77.1972 46.0334 78.3191 50.7396C78.5914 51.9605 79.0197 53.1453 79.5986 54.2537C80.9784 56.8953 79.9582 60.1704 77.3249 61.5545C75.9537 62.2755 77.0652 64.4033 78.4363 63.6825C82.2395 61.6839 83.7127 56.9541 81.7201 53.1392ZM45.6656 77.3069C45.6656 78.5701 44.641 79.5977 43.3818 79.5977H5.54465C4.28543 79.5977 3.26107 78.5701 3.26107 77.3069V68.5001H45.6656V77.3069ZM31.6548 48.4306C30.842 50.1446 30.9999 52.1975 32.0591 53.7694C30.0789 55.8481 27.3621 57.026 24.4632 57.026C18.6626 57.026 13.9434 52.2921 13.9434 46.4733C13.9434 40.6545 18.6626 35.9206 24.4632 35.9206C29.9671 35.9206 34.4943 40.1834 34.9433 45.5901C33.5251 46.0241 32.2923 47.0859 31.6548 48.4306ZM40.3491 22.0317C39.827 21.6065 39.2247 21.2795 38.5634 21.0722C34.7278 19.8699 30.8648 23.3982 31.7091 27.3384H8.97648C8.75631 27.3384 8.57734 27.1588 8.57734 26.938V18.3539C8.57734 18.1331 8.75631 17.9535 8.97648 17.9535H39.95C40.1702 17.9535 40.3491 18.1331 40.3491 18.3539V22.0317ZM45.6656 31.2708L42.744 25.677V18.3539C42.744 16.8086 41.4905 15.5512 39.95 15.5512H8.97648C7.43595 15.5512 6.18248 16.8086 6.18248 18.3539V26.9381C6.18248 28.4835 7.43595 29.7409 8.97648 29.7409H32.7411L42.0678 47.5984L38.8546 45.9016C38.8404 45.8941 38.8258 45.8867 38.8113 45.8798C38.3355 45.6527 37.8379 45.4996 37.3316 45.4198C36.7948 38.7677 31.2305 33.5183 24.4634 33.5183C17.3422 33.5183 11.5487 39.3299 11.5487 46.4733C11.5487 53.6168 17.3422 59.4284 24.4634 59.4284C28.0349 59.4284 31.3839 57.9756 33.8167 55.4069C37.6156 57.6029 41.735 59.3491 45.6656 61.2993V66.0976H3.26107V10.606H45.6656V31.2708Z" fill="#0F9547"/>
</g>
<defs>
<clipPath id="clip0">
<rect width="81.7445" height="82" fill="white" transform="translate(0.866211)"/>
</clipPath>
</defs>
</svg>
