<svg width="36" height="36" viewBox="0 0 36 36" fill="none" xmlns="http://www.w3.org/2000/svg">
<path d="M33.4688 10.4062H2.53125C1.9125 10.4062 1.40625 9.9 1.40625 9.28125C1.40625 8.6625 1.9125 8.15625 2.53125 8.15625H33.4688C34.0875 8.15625 34.5938 8.6625 34.5938 9.28125C34.5938 9.9 34.0875 10.4062 33.4688 10.4062Z" fill="#0F9547"/>
<path d="M18.2812 19.4062H2.53125C1.9125 19.4062 1.40625 18.9 1.40625 18.2812C1.40625 17.6625 1.9125 17.1562 2.53125 17.1562H18.2812C18.9 17.1562 19.4062 17.6625 19.4062 18.2812C19.4062 18.9 18.9 19.4062 18.2812 19.4062Z" fill="#0F9547"/>
<path d="M33.4688 28.4062H2.53125C1.9125 28.4062 1.40625 27.9 1.40625 27.2812C1.40625 26.6625 1.9125 26.1562 2.53125 26.1562H33.4688C34.0875 26.1562 34.5938 26.6625 34.5938 27.2812C34.5938 27.9 34.0875 28.4062 33.4688 28.4062Z" fill="#0F9547"/>
</svg>
