<svg width="25" height="25" viewBox="0 0 25 25" fill="none" xmlns="http://www.w3.org/2000/svg">
<path d="M24.151 1.98249L2.27492 23.8586C1.8374 24.2961 1.12145 24.2961 0.683928 23.8586C0.246406 23.4211 0.246406 22.7051 0.683928 22.2676L22.56 0.391496C22.9976 -0.0460261 23.7135 -0.0460261 24.151 0.391496C24.5886 0.829019 24.5886 1.54496 24.151 1.98249Z" fill="#0F9547"/>
<path d="M22.5597 23.8586L0.68361 1.9825C0.246088 1.54497 0.246088 0.829028 0.68361 0.391505C1.12113 -0.046017 1.83708 -0.046017 2.2746 0.391505L24.1507 22.2676C24.5882 22.7051 24.5882 23.4211 24.1507 23.8586C23.7132 24.2961 22.9972 24.2961 22.5597 23.8586Z" fill="#0F9547"/>
</svg>
