<svg width="12" height="12" viewBox="0 0 12 12" fill="none" xmlns="http://www.w3.org/2000/svg">
<path d="M10.9727 0.366116C10.7383 0.131696 10.4204 0 10.0888 0C9.75731 0 9.43937 0.131696 9.20495 0.366116L5.66942 3.90165L2.13388 0.366116C1.89946 0.131696 1.58152 0 1.25 0C0.91848 0 0.600538 0.131696 0.366117 0.366116C0.131697 0.600537 8.42937e-07 0.918479 8.42937e-07 1.25C8.42937e-07 1.58152 0.131697 1.89946 0.366117 2.13388L3.90165 5.66942L0.366117 9.20495C0.131697 9.43937 0 9.75731 0 10.0888C0 10.4204 0.131697 10.7383 0.366117 10.9727C0.600538 11.2071 0.918479 11.3388 1.25 11.3388C1.58152 11.3388 1.89946 11.2071 2.13388 10.9727L5.66942 7.43718L9.20495 10.9727C9.43937 11.2071 9.75731 11.3388 10.0888 11.3388C10.4204 11.3388 10.7383 11.2071 10.9727 10.9727C11.2071 10.7383 11.3388 10.4204 11.3388 10.0888C11.3388 9.75731 11.2071 9.43937 10.9727 9.20495L7.43718 5.66942L10.9727 2.13388C11.2071 1.89946 11.3388 1.58152 11.3388 1.25C11.3388 0.918479 11.2071 0.600537 10.9727 0.366116Z" fill="#888888"/>
</svg>
