<svg width="25" height="22" viewBox="0 0 25 22" fill="none" xmlns="http://www.w3.org/2000/svg">
<path d="M0 5.12695V19.7753C0 20.1801 0.327586 20.5077 0.732417 20.5077H2.19725V4.39453H0.732417C0.327586 4.39453 0 4.72212 0 5.12695Z" fill="#0F9547"/>
<path d="M8.15427 2.92969H5.12694C4.31943 2.92969 3.66211 3.58701 3.66211 4.39452V20.5077C3.66211 21.3152 4.31943 21.9725 5.12694 21.9725H8.15427C8.96178 21.9725 9.6191 21.3152 9.6191 20.5077V4.39452C9.6191 3.58701 8.96178 2.92969 8.15427 2.92969Z" fill="#0F9547"/>
<path d="M22.0703 0.732417C22.0703 0.32783 21.7423 0 21.3378 0H15.4785C15.074 0 14.7461 0.32783 14.7461 0.732417V7.32417H22.0703V0.732417Z" fill="#0F9547"/>
<path d="M24.2675 4.39453H23.5351V8.05662C23.5351 8.46145 23.2075 8.78903 22.8027 8.78903H14.0137C13.6088 8.78903 13.2812 8.46145 13.2812 8.05662V4.39453H11.084V20.5077H24.2675C24.6723 20.5077 24.9999 20.1801 24.9999 19.7753V5.12695C24.9999 4.72212 24.6723 4.39453 24.2675 4.39453ZM15.4785 18.3105C15.074 18.3105 14.7461 17.9825 14.7461 17.578C14.7461 17.1735 15.074 16.8456 15.4785 16.8456C15.883 16.8456 16.2109 17.1735 16.2109 17.578C16.2109 17.9825 15.883 18.3105 15.4785 18.3105ZM15.4785 15.3808C15.074 15.3808 14.7461 15.0529 14.7461 14.6484C14.7461 14.2439 15.074 13.916 15.4785 13.916C15.883 13.916 16.2109 14.2439 16.2109 14.6484C16.2109 15.0529 15.883 15.3808 15.4785 15.3808ZM15.4785 12.4511C15.074 12.4511 14.7461 12.1232 14.7461 11.7187C14.7461 11.3142 15.074 10.9863 15.4785 10.9863C15.883 10.9863 16.2109 11.3142 16.2109 11.7187C16.2109 12.1232 15.883 12.4511 15.4785 12.4511ZM18.4082 18.3105C18.0037 18.3105 17.6757 17.9825 17.6757 17.578C17.6757 17.1735 18.0037 16.8456 18.4082 16.8456C18.8126 16.8456 19.1406 17.1735 19.1406 17.578C19.1406 17.9825 18.8126 18.3105 18.4082 18.3105ZM18.4082 15.3808C18.0037 15.3808 17.6757 15.0529 17.6757 14.6484C17.6757 14.2439 18.0037 13.916 18.4082 13.916C18.8126 13.916 19.1406 14.2439 19.1406 14.6484C19.1406 15.0529 18.8126 15.3808 18.4082 15.3808ZM18.4082 12.4511C18.0037 12.4511 17.6757 12.1232 17.6757 11.7187C17.6757 11.3142 18.0037 10.9863 18.4082 10.9863C18.8126 10.9863 19.1406 11.3142 19.1406 11.7187C19.1406 12.1232 18.8126 12.4511 18.4082 12.4511ZM21.3378 18.3105C20.9333 18.3105 20.6054 17.9825 20.6054 17.578C20.6054 17.1735 20.9333 16.8456 21.3378 16.8456C21.7423 16.8456 22.0702 17.1735 22.0702 17.578C22.0702 17.9825 21.7423 18.3105 21.3378 18.3105ZM21.3378 15.3808C20.9333 15.3808 20.6054 15.0529 20.6054 14.6484C20.6054 14.2439 20.9333 13.916 21.3378 13.916C21.7423 13.916 22.0702 14.2439 22.0702 14.6484C22.0702 15.0529 21.7423 15.3808 21.3378 15.3808ZM21.3378 12.4511C20.9333 12.4511 20.6054 12.1232 20.6054 11.7187C20.6054 11.3142 20.9333 10.9863 21.3378 10.9863C21.7423 10.9863 22.0702 11.3142 22.0702 11.7187C22.0702 12.1232 21.7423 12.4511 21.3378 12.4511Z" fill="#0F9547"/>
</svg>
