<svg width="20" height="20" viewBox="0 0 20 20" fill="none" xmlns="http://www.w3.org/2000/svg">
<path d="M18.9728 7.27979L8.80854 17.3312C7.12439 18.9968 4.39357 18.9968 2.70942 17.3312C1.02526 15.6656 1.02526 12.9655 2.70942 11.2999L11.8578 2.25374C12.9808 1.14355 14.8006 1.14355 15.9236 2.25374C17.0466 3.36388 17.0466 5.16445 15.9236 6.27459L6.77526 15.3208C6.21412 15.8763 5.30384 15.8763 4.74198 15.3208C4.18083 14.7661 4.18083 13.8659 4.74198 13.3104L12.8737 5.26936L11.857 4.26416L3.72607 12.3059C2.60306 13.4161 2.60306 15.2166 3.72607 16.3267C4.84908 17.4369 6.66891 17.4369 7.79192 16.3267L16.9403 7.28051C18.6244 5.61493 18.6244 2.91484 16.9403 1.24922C15.2561 -0.416359 12.5253 -0.416359 10.8412 1.24922L1.18447 10.798L1.21946 10.833C-0.534684 13.0633 -0.380475 16.2875 1.69279 18.3371C3.76606 20.3868 7.02515 20.5403 9.28116 18.8048L9.31615 18.8398L19.9888 8.28571L18.9728 7.27979Z" fill="black"/>
</svg>
