<svg width="91" height="90" viewBox="0 0 91 90" fill="none" xmlns="http://www.w3.org/2000/svg">
<path style="fill:#fff"  d="M6.14453 36.0295V71.8682C6.14453 74.9134 8.67139 77.3439 11.7168 77.3439H15.9398C16.2359 79.4281 17.2743 81.3355 18.8642 82.7154C20.454 84.0953 22.4884 84.855 24.5936 84.855C26.6987 84.855 28.7331 84.0953 30.323 82.7154C31.9128 81.3355 32.9512 79.4281 33.2474 77.3439H59.0738C59.3699 79.4282 60.4082 81.3357 61.998 82.7157C63.5879 84.0956 65.6223 84.8555 67.7276 84.8555C69.8328 84.8555 71.8673 84.0956 73.4571 82.7157C75.0469 81.3357 76.0853 79.4282 76.3813 77.3439H78.6191C81.6644 77.3439 84.1914 74.9134 84.1914 71.8682V56.6163C84.1914 56.6063 84.1656 56.5965 84.1652 56.5864C84.1652 56.5638 84.139 56.5413 84.1373 56.5188C84.1359 56.5001 84.1339 56.4817 84.1316 56.4632C84.129 56.442 84.1257 56.421 84.122 56.3999C84.1183 56.3788 84.1148 56.3618 84.1105 56.3428C84.1063 56.3238 84.1009 56.3033 84.0953 56.2834C84.0896 56.2635 84.0845 56.2456 84.0777 56.2268C84.0708 56.208 84.0641 56.1886 84.0568 56.1697C84.0494 56.1507 84.0422 56.1331 84.0343 56.1152C84.0263 56.0972 84.0167 56.0784 84.0077 56.0602C83.9987 56.0419 83.9901 56.025 83.9798 56.0074C83.9694 55.9898 83.9594 55.9731 83.9486 55.9563C83.9379 55.9394 83.926 55.9211 83.9135 55.9044C83.901 55.8877 83.8912 55.8738 83.8792 55.8587C83.8673 55.8436 83.8514 55.8236 83.8369 55.8074C83.83 55.7996 83.8244 55.7916 83.8173 55.784L72.7618 43.7697C72.2423 43.2108 71.6124 42.766 70.9119 42.4634C70.2115 42.1608 69.4558 42.007 68.6928 42.0119H56.2422V36.0295C56.2422 32.9841 53.7183 30.5861 50.6729 30.5861H50.2197C50.9638 28.1252 51.2612 25.8987 51.1015 23.558C50.7673 18.6831 48.659 14.0994 45.175 10.6733C41.5264 7.10831 36.6286 5.11119 31.5276 5.1084C26.4265 5.10561 21.5265 7.09737 17.8741 10.6583C14.3895 14.0912 12.2815 18.6805 11.9476 23.5607C11.7871 25.9014 12.0859 28.1252 12.8291 30.5861H11.7168C8.67139 30.5861 6.14453 32.9841 6.14453 36.0295ZM67.7276 82.4416C66.4852 82.4416 65.2708 82.0733 64.2378 81.3831C63.2049 80.6929 62.3998 79.7119 61.9244 78.5642C61.4489 77.4164 61.3245 76.1535 61.5669 74.935C61.8092 73.7166 62.4075 72.5974 63.2859 71.7189C64.1644 70.8405 65.2836 70.2422 66.502 69.9999C67.7205 69.7575 68.9834 69.8819 70.1312 70.3574C71.2789 70.8328 72.2599 71.6379 72.9501 72.6709C73.6403 73.7038 74.0086 74.9183 74.0086 76.1606C74.0067 77.8258 73.3443 79.4223 72.1668 80.5998C70.9893 81.7773 69.3928 82.4397 67.7276 82.4416ZM56.2422 44.4728H68.6928C69.1144 44.4661 69.5327 44.5474 69.9211 44.7115C70.3095 44.8756 70.6595 45.1188 70.9486 45.4257L80.1121 55.3713H56.2422V44.4728ZM56.2422 57.8322H81.7305V71.8682C81.7305 73.5565 80.3077 74.883 78.6191 74.883H76.3813C76.0853 72.7987 75.0469 70.8913 73.4571 69.5113C71.8673 68.1313 69.8328 67.3714 67.7276 67.3714C65.6223 67.3714 63.5879 68.1313 61.998 69.5113C60.4082 70.8913 59.3699 72.7987 59.0738 74.883H56.2422V57.8322ZM24.5937 82.4416C23.3513 82.4416 22.1369 82.0732 21.104 81.383C20.0711 80.6928 19.266 79.7118 18.7906 78.5641C18.3152 77.4163 18.1908 76.1534 18.4332 74.9349C18.6755 73.7165 19.2738 72.5973 20.1522 71.7189C21.0307 70.8404 22.1499 70.2422 23.3684 69.9999C24.5868 69.7575 25.8497 69.8819 26.9975 70.3574C28.1452 70.8328 29.1262 71.6379 29.8164 72.6709C30.5065 73.7038 30.8749 74.9183 30.8748 76.1606C30.873 77.8259 30.2106 79.4224 29.0331 80.5999C27.8555 81.7774 26.2589 82.4398 24.5937 82.4416ZM14.4027 23.6858C14.6963 19.4171 16.5453 15.4042 19.5995 12.4075C22.7905 9.29862 27.0694 7.5588 31.5244 7.5588C35.9795 7.5588 40.2584 9.29862 43.4494 12.4075C46.5036 15.4042 48.3527 19.417 48.6461 23.6858C48.7955 25.9979 48.4473 28.3151 47.6252 30.4812C46.8177 32.6501 45.4925 34.7057 43.6867 36.5906L31.5245 49.2855L19.3633 36.5906C17.5566 34.7059 16.2316 32.6503 15.4238 30.4806C14.6018 28.3147 14.2536 25.9977 14.4027 23.6858ZM13.8183 33.047C14.8217 34.9758 16.0896 36.755 17.5853 38.333L30.636 51.9353C30.7513 52.0538 30.8896 52.1476 31.0424 52.211C31.1951 52.2745 31.3591 52.3063 31.5245 52.3044C31.6908 52.3035 31.8553 52.269 32.0079 52.203C32.1606 52.137 32.2983 52.0409 32.4129 51.9203L45.4636 38.3351C46.9595 36.7564 48.2275 34.9766 49.2308 33.047H50.6722C52.3606 33.047 53.7805 34.3411 53.7805 36.0295V74.883H33.2474C32.9515 72.7986 31.9132 70.891 30.3233 69.5108C28.7335 68.1307 26.6989 67.3708 24.5936 67.3708C22.4882 67.3708 20.4537 68.1307 18.8638 69.5108C17.2739 70.891 16.2356 72.7986 15.9398 74.883H11.7168C10.0293 74.883 8.60547 73.5565 8.60547 71.8682V36.0295C8.60547 34.3411 10.0282 33.047 11.7168 33.047H13.8183Z" fill="#0F9547"/>
<path style="fill:#fff"  d="M27.9342 27.9699C28.1429 28.2142 28.4389 28.3673 28.7589 28.3963C29.0789 28.4253 29.3975 28.328 29.6467 28.1251L37.2243 21.9603C37.3504 21.8586 37.4551 21.7329 37.5325 21.5906C37.6099 21.4483 37.6585 21.2921 37.6754 21.131C37.6923 20.9699 37.6772 20.807 37.631 20.6517C37.5848 20.4965 37.5084 20.3518 37.4061 20.2262C37.3039 20.1005 37.1778 19.9963 37.0352 19.9194C36.8926 19.8426 36.7362 19.7947 36.575 19.7784C36.4138 19.7622 36.251 19.7779 36.0959 19.8247C35.9408 19.8716 35.7965 19.9486 35.6713 20.0513L29.0257 25.458L27.1735 23.2894C27.0691 23.1648 26.941 23.0622 26.7967 22.9874C26.6524 22.9126 26.4947 22.8671 26.3327 22.8536C26.1708 22.8401 26.0077 22.8588 25.853 22.9087C25.6983 22.9586 25.555 23.0386 25.4314 23.1441C25.3078 23.2497 25.2064 23.3787 25.1329 23.5236C25.0594 23.6686 25.0154 23.8267 25.0034 23.9888C24.9913 24.1509 25.0116 24.3138 25.0628 24.468C25.1141 24.6222 25.1954 24.7648 25.3021 24.8874L27.9342 27.9699Z" fill="#0F9547"/>
<path style="fill:#fff"  d="M31.5245 36.703C38.8255 36.703 44.7655 30.7292 44.7655 23.3865C44.7655 16.0438 38.8255 10.0698 31.5245 10.0698C24.2234 10.0698 18.2832 16.0438 18.2832 23.3865C18.2832 30.7292 24.2232 36.703 31.5245 36.703ZM31.5245 12.5308C37.4687 12.5308 42.3046 17.3999 42.3046 23.3865C42.3046 29.3731 37.4687 34.242 31.5245 34.242C25.5802 34.242 20.7441 29.3729 20.7441 23.3865C20.7441 17.4001 25.5801 12.5299 31.5245 12.5299V12.5308Z" fill="#0F9547"/>
</svg>
