<svg width="25" height="29" viewBox="0 0 25 29" fill="none" xmlns="http://www.w3.org/2000/svg">
<path d="M12.5006 20.7034C16.655 20.7034 20.0228 17.3357 20.0228 13.1813C20.0228 9.02695 16.655 5.65918 12.5006 5.65918C8.34629 5.65918 4.97852 9.02695 4.97852 13.1813C4.97852 17.3357 8.34629 20.7034 12.5006 20.7034Z" fill="#0F9547"/>
<path d="M21.3388 4.39745C18.9779 2.03655 15.8389 0.736328 12.5 0.736328C9.16112 0.736328 6.02207 2.03655 3.66117 4.39745C1.30022 6.75845 0 9.89745 0 13.2363C0 19.1268 4.11803 24.2122 9.83888 25.4514L12.5 28.9996L15.1612 25.4514C20.882 24.2121 25 19.1268 25 13.2363C25 9.89745 23.6998 6.75845 21.3388 4.39745ZM12.5 3.9996C17.5627 3.9996 21.6814 8.11841 21.6814 13.181C21.6814 18.2436 17.5627 22.3624 12.5 22.3624C7.43733 22.3624 3.31858 18.2436 3.31858 13.181C3.31858 8.11841 7.43733 3.9996 12.5 3.9996Z" fill="#0F9547"/>
</svg>
