<svg width="25" height="25" viewBox="0 0 25 25" fill="none" xmlns="http://www.w3.org/2000/svg">
<path d="M21.3374 3.65981C16.4551 -1.22097 8.54059 -1.2198 3.65981 3.66249C-1.22097 8.54479 -1.2198 16.4593 3.66249 21.3401C8.54479 26.2208 16.4593 26.2197 21.3401 21.3374C23.6841 18.9926 25.0006 15.8127 24.9998 12.4972C24.9992 9.18233 23.6817 6.00345 21.3374 3.65981ZM18.9307 17.4123C18.9302 17.4128 18.9296 17.4134 18.929 17.4139V17.4098L18.2957 18.0389C17.4766 18.8683 16.2837 19.2096 15.1499 18.9389C14.0075 18.6331 12.9216 18.1464 11.9332 17.4973C11.015 16.9104 10.164 16.2244 9.39576 15.4514C8.68888 14.7497 8.05382 13.9792 7.49992 13.1514C6.89406 12.2607 6.41453 11.2904 6.07493 10.2681C5.68562 9.06715 6.00823 7.74933 6.90827 6.86399L7.64992 6.12234C7.85612 5.91521 8.19117 5.91448 8.39825 6.12068C8.39879 6.12122 8.39938 6.12175 8.39991 6.12234L10.7415 8.46398C10.9487 8.67018 10.9494 9.00523 10.7432 9.21231C10.7427 9.21285 10.7421 9.21338 10.7415 9.21397L9.36656 10.589C8.97203 10.9792 8.92242 11.5993 9.24991 12.0473C9.74722 12.7298 10.2976 13.372 10.8957 13.9681C11.5627 14.638 12.2877 15.2473 13.0624 15.789C13.51 16.1012 14.1168 16.0485 14.504 15.664L15.8332 14.314C16.0394 14.1069 16.3744 14.1061 16.5815 14.3123C16.582 14.3129 16.5826 14.3134 16.5832 14.314L18.929 16.664C19.1362 16.8701 19.1369 17.2051 18.9307 17.4123Z" fill="#0F9547"/>
</svg>
