<svg width="90"  height="90" viewBox="0 0 90 90" fill="none" xmlns="http://www.w3.org/2000/svg">
<g clip-path="url(#clip0)">
<path style="fill:#fff"   d="M90 55.0033C90 55.4164 89.8184 55.8086 89.5034 56.0758L65.9162 76.0823C65.6571 76.3022 65.3335 76.4161 65.0064 76.4161C64.806 76.4161 64.6045 76.3734 64.4157 76.286C63.9186 76.0556 63.6005 75.5576 63.6005 75.0099V66.4129H24.9936C24.217 66.4129 23.5874 65.7833 23.5874 65.0067C23.5874 64.2301 24.217 63.6004 24.9936 63.6004H65.0067C65.7833 63.6004 66.413 64.2301 66.413 65.0067V71.9732L86.4199 55.0033L66.413 38.0336V45.0001C66.413 45.7767 65.7833 46.4064 65.0067 46.4064H26.3999V55.0033C26.3999 55.5512 26.0817 56.049 25.5846 56.2795C25.0873 56.5096 24.5018 56.4301 24.084 56.0758L0.496582 36.0692C0.181582 35.802 0 35.4099 0 34.9968C0 34.5837 0.181582 34.1915 0.496582 33.9243L24.0838 13.9178C24.5016 13.5634 25.0873 13.484 25.5844 13.7142C26.0815 13.9445 26.3997 14.4425 26.3997 14.9902V23.5872H65.0065C65.7831 23.5872 66.4128 24.2168 66.4128 24.9934C66.4128 25.77 65.7831 26.3997 65.0065 26.3997H24.9935C24.2169 26.3997 23.5872 25.77 23.5872 24.9934V18.0269L3.58031 34.9968L23.5872 51.9667V45.0001C23.5872 44.2235 24.2169 43.5939 24.9935 43.5939H63.6003V34.997C63.6003 34.449 63.9185 33.9511 64.4156 33.721C64.9128 33.4905 65.4984 33.5701 65.9162 33.9245L89.5034 53.9311C89.8184 54.1981 90 54.5904 90 55.0033Z" fill="#0F9547"/>
</g>
<defs>
<clipPath id="clip0">
<rect width="90" height="90" fill="white"/>
</clipPath>
</defs>
</svg>
